<svg xmlns="http://www.w3.org/2000/svg" version="1.1" xmlns:xlink="http://www.w3.org/1999/xlink" xmlns:svgjs="http://svgjs.com/svgjs" width="512" height="512" x="0" y="0" viewBox="0 0 24 24" style="enable-background:new 0 0 512 512" xml:space="preserve" class=""><g><g data-name="Layer 2"><path fill="#63c4f1" d="M12 7a1 1 0 0 1-1-1V3a1 1 0 0 1 2 0v3a1 1 0 0 1-1 1z" data-original="#63c4f1"></path><path fill="#232323" d="M16.24 8.76a1 1 0 0 1-.7-1.71l2.12-2.12a1 1 0 1 1 1.41 1.41L17 8.46a1 1 0 0 1-.76.3z" data-original="#232323"></path><path fill="#63c4f1" d="M21 13h-3a1 1 0 0 1 0-2h3a1 1 0 0 1 0 2z" data-original="#63c4f1"></path><path fill="#232323" d="M18.36 19.36a1 1 0 0 1-.7-.29L15.54 17a1 1 0 0 1 0-1.41 1 1 0 0 1 1.41 0l2.12 2.12a1 1 0 0 1 0 1.41 1 1 0 0 1-.71.24z" data-original="#232323"></path><path fill="#63c4f1" d="M12 22a1 1 0 0 1-1-1v-3a1 1 0 0 1 2 0v3a1 1 0 0 1-1 1z" data-original="#63c4f1"></path><path fill="#232323" d="M5.64 19.36a1 1 0 0 1-.71-.29 1 1 0 0 1 0-1.41l2.12-2.12a1 1 0 0 1 1.41 0 1 1 0 0 1 0 1.41l-2.12 2.12a1 1 0 0 1-.7.29z" data-original="#232323"></path><path fill="#63c4f1" d="M6 13H3a1 1 0 0 1 0-2h3a1 1 0 0 1 0 2z" data-original="#63c4f1"></path><path fill="#232323" d="M7.76 8.76a1 1 0 0 1-.71-.3L4.93 6.34a1 1 0 0 1 1.41-1.41l2.12 2.12a1 1 0 0 1-.7 1.71z" data-original="#232323"></path></g></g></svg>