<svg xmlns="http://www.w3.org/2000/svg" version="1.1" xmlns:xlink="http://www.w3.org/1999/xlink" xmlns:svgjs="http://svgjs.com/svgjs" width="512" height="512" x="0" y="0" viewBox="0 0 494.449 494.449" style="enable-background:new 0 0 512 512" xml:space="preserve" class=""><g><path fill="#ffb6bd" d="M480.589 224.894C464.822-80.834-5.52-25.753 49.422 276.016c47.325 259.926 443.963 203.259 431.167-51.122z" data-original="#ffb6bd"></path><path fill="#80aeff" d="M323.29 245.555c-21.989-31.099-123.184-100.63-126.127-28.551-1.63 39.932-15.836 75.635 13.052 98.107 13.806 10.74 34.862-10.684 56.569-16.267 22.56-12.151 65.038-18.851 56.506-53.289z" data-original="#80aeff"></path><g fill="#2e386b"><path d="M258.212 315.519c45.225-25.192 120.241-58.82 56.386-101.998-12.788-8.916-30.927-19.03-56.031-33.028-24.809-16.134-67.393-27.303-70.463 5.109-.921 9.723-16.054 111.837 12.008 136.382 16.622 15.989 41.272 4.935 58.1-6.465zm-41.625-79.067c1.312-16.185 2.477-30.567 1.268-41.835.748-.572 2.646-1.142 3.298-.748 28.835 17.48 69.416 35.553 87.706 54.03-1.212 1.687-4.837 5.541-15.539 12.56-14.739 9.766-46.572 26.994-68.795 39.521-15.856 1.597-8.278-49.109-7.938-63.528z" fill="#2e386b" data-original="#2e386b"></path><path d="M486.204 193.06C461.283 57.76 306.469-33.73 176.067 11.828 113.312 32.505 63.713 81.145 31.298 137.526c-13.94-16.185-4.732-39.103-1.544-57.739 1.096-8.987 6.918-35.979-7.306-35.822-12.936 1.269-5.711 17.49-8.626 26.039-3.669 19.901-13.105 39.755-9.007 60.634 4.706 29.284 34.201 45.886 61.866 46.381 22.132 1.225 44.374-3.157 65.163-9.458 8.246-2.282 8.055-15.169-.58-16.911-24.003-5.794-47.297-2.662-71.206-3.611 27.375-49.567 69.958-92.79 124.084-111.861 117.899-44.007 260.19 38.757 284.109 161.538 13.214 61.566-5.144 126.052-39.503 177.71-7.178 12.152 12.298 23.232 19.034 10.714 8.146-14.47 15.638-29.32 21.916-44.728 19.093-46.231 26.476-97.901 16.506-147.352zM366.957 443.172c-35.718 13.652-72.622 21.33-110.627 21.212-90.057 1.16-180.372-38.659-211.284-128.68-7.099-20.384-9.868-42.229-9.068-63.757.005-4.361.859-9.879 1.153-14.34 1.218-10.874-15.7-12.582-16.816-1.8-1.206 10.437-1.722 20.993-1.439 31.588 3.051 169.461 222.017 263.261 356.26 170.591 8.355-5.383.814-18.971-8.179-14.814z" fill="#2e386b" data-original="#2e386b"></path></g></g></svg>